<svg width="344" height="81" viewBox="0 0 344 81" fill="none" xmlns="http://www.w3.org/2000/svg">
<path d="M30.672 38.456V47H2.736V13.4H30.048V21.944H13.872V25.88H28.08V34.04H13.872V38.456H30.672ZM51.2569 47L47.6569 41.384L43.6249 47H31.8649L41.8009 33.992L32.1529 20.744H44.3929L48.1369 26.312L52.0729 20.744H63.4489L53.8009 33.512L63.6889 47H51.2569ZM83.8744 20.264C87.1064 20.264 89.6984 21.24 91.6504 23.192C93.6344 25.144 94.6264 28.088 94.6264 32.024V47H83.7784V33.896C83.7784 30.888 82.7064 29.384 80.5624 29.384C79.3464 29.384 78.3544 29.816 77.5864 30.68C76.8504 31.512 76.4824 32.84 76.4824 34.664V47H65.6344V11.384H76.4824V22.856C78.4984 21.128 80.9624 20.264 83.8744 20.264ZM99.3375 20.744H110.186V47H99.3375V20.744ZM104.762 18.632C102.81 18.632 101.226 18.12 100.01 17.096C98.8255 16.04 98.2335 14.712 98.2335 13.112C98.2335 11.512 98.8255 10.2 100.01 9.176C101.226 8.12 102.81 7.592 104.762 7.592C106.746 7.592 108.33 8.088 109.514 9.08C110.698 10.072 111.29 11.352 111.29 12.92C111.29 14.584 110.698 15.96 109.514 17.048C108.33 18.104 106.746 18.632 104.762 18.632ZM132.514 20.264C134.818 20.264 136.93 20.824 138.85 21.944C140.802 23.032 142.338 24.616 143.458 26.696C144.61 28.744 145.186 31.128 145.186 33.848C145.186 36.568 144.61 38.968 143.458 41.048C142.338 43.128 140.802 44.728 138.85 45.848C136.93 46.936 134.818 47.48 132.514 47.48C129.282 47.48 126.882 46.6 125.314 44.84V47H114.994V11.384H125.842V22.52C127.378 21.016 129.602 20.264 132.514 20.264ZM129.922 39.032C131.17 39.032 132.194 38.584 132.994 37.688C133.794 36.76 134.194 35.48 134.194 33.848C134.194 32.216 133.794 30.952 132.994 30.056C132.194 29.16 131.17 28.712 129.922 28.712C128.674 28.712 127.65 29.16 126.85 30.056C126.05 30.952 125.65 32.216 125.65 33.848C125.65 35.48 126.05 36.76 126.85 37.688C127.65 38.584 128.674 39.032 129.922 39.032ZM148.603 20.744H159.451V47H148.603V20.744ZM154.027 18.632C152.075 18.632 150.491 18.12 149.275 17.096C148.091 16.04 147.499 14.712 147.499 13.112C147.499 11.512 148.091 10.2 149.275 9.176C150.491 8.12 152.075 7.592 154.027 7.592C156.011 7.592 157.595 8.088 158.779 9.08C159.963 10.072 160.555 11.352 160.555 12.92C160.555 14.584 159.963 15.96 158.779 17.048C157.595 18.104 156.011 18.632 154.027 18.632ZM183.603 46.088C181.971 47.016 179.747 47.48 176.931 47.48C173.251 47.48 170.419 46.6 168.435 44.84C166.451 43.048 165.459 40.376 165.459 36.824V30.104H161.859V22.184H165.459V14.84H176.307V22.184H181.683V30.104H176.307V36.728C176.307 37.528 176.515 38.152 176.931 38.6C177.347 39.048 177.891 39.272 178.563 39.272C179.491 39.272 180.307 39.032 181.011 38.552L183.603 46.088ZM199.506 47.48C196.594 47.48 193.97 46.904 191.634 45.752C189.33 44.568 187.522 42.952 186.21 40.904C184.898 38.824 184.242 36.472 184.242 33.848C184.242 31.224 184.898 28.888 186.21 26.84C187.522 24.76 189.33 23.144 191.634 21.992C193.97 20.84 196.594 20.264 199.506 20.264C202.45 20.264 205.074 20.84 207.378 21.992C209.714 23.144 211.522 24.76 212.802 26.84C214.114 28.888 214.77 31.224 214.77 33.848C214.77 36.472 214.114 38.824 212.802 40.904C211.522 42.952 209.714 44.568 207.378 45.752C205.074 46.904 202.45 47.48 199.506 47.48ZM199.506 39.032C200.754 39.032 201.778 38.584 202.578 37.688C203.378 36.76 203.778 35.48 203.778 33.848C203.778 32.216 203.378 30.952 202.578 30.056C201.778 29.16 200.754 28.712 199.506 28.712C198.258 28.712 197.234 29.16 196.434 30.056C195.634 30.952 195.234 32.216 195.234 33.848C195.234 35.48 195.634 36.76 196.434 37.688C197.234 38.584 198.258 39.032 199.506 39.032ZM236.406 20.264C239.638 20.264 242.23 21.24 244.182 23.192C246.166 25.144 247.158 28.088 247.158 32.024V47H236.31V33.896C236.31 30.888 235.238 29.384 233.094 29.384C231.878 29.384 230.886 29.816 230.118 30.68C229.382 31.512 229.014 32.84 229.014 34.664V47H218.166V20.744H228.486V23.336C229.51 22.312 230.694 21.544 232.038 21.032C233.382 20.52 234.838 20.264 236.406 20.264ZM262.141 47.48C259.901 47.48 257.693 47.24 255.517 46.76C253.341 46.28 251.581 45.656 250.237 44.888L253.213 37.736C254.429 38.472 255.869 39.048 257.533 39.464C259.197 39.88 260.813 40.088 262.381 40.088C263.629 40.088 264.493 39.992 264.973 39.8C265.485 39.576 265.741 39.256 265.741 38.84C265.741 38.424 265.421 38.136 264.781 37.976C264.173 37.816 263.165 37.656 261.757 37.496C259.613 37.24 257.789 36.92 256.285 36.536C254.781 36.12 253.453 35.336 252.301 34.184C251.181 33.032 250.621 31.384 250.621 29.24C250.621 27.544 251.133 26.024 252.157 24.68C253.181 23.336 254.701 22.264 256.717 21.464C258.765 20.664 261.213 20.264 264.061 20.264C266.045 20.264 267.981 20.456 269.869 20.84C271.789 21.192 273.421 21.72 274.765 22.424L271.789 29.576C269.485 28.296 266.957 27.656 264.205 27.656C261.837 27.656 260.653 28.072 260.653 28.904C260.653 29.32 260.973 29.624 261.613 29.816C262.253 29.976 263.261 30.136 264.637 30.296C266.781 30.552 268.589 30.888 270.061 31.304C271.565 31.72 272.877 32.504 273.997 33.656C275.149 34.808 275.725 36.456 275.725 38.6C275.725 40.232 275.213 41.72 274.189 43.064C273.165 44.408 271.629 45.48 269.581 46.28C267.533 47.08 265.053 47.48 262.141 47.48ZM283.905 47.48C282.081 47.48 280.561 46.904 279.345 45.752C278.161 44.568 277.569 43.064 277.569 41.24C277.569 39.416 278.161 37.944 279.345 36.824C280.561 35.672 282.081 35.096 283.905 35.096C285.729 35.096 287.233 35.672 288.417 36.824C289.633 37.944 290.241 39.416 290.241 41.24C290.241 43.064 289.633 44.568 288.417 45.752C287.233 46.904 285.729 47.48 283.905 47.48ZM293.588 20.744H304.436V47H293.588V20.744ZM299.012 18.632C297.06 18.632 295.476 18.12 294.26 17.096C293.076 16.04 292.484 14.712 292.484 13.112C292.484 11.512 293.076 10.2 294.26 9.176C295.476 8.12 297.06 7.592 299.012 7.592C300.996 7.592 302.58 8.088 303.764 9.08C304.948 10.072 305.54 11.352 305.54 12.92C305.54 14.584 304.948 15.96 303.764 17.048C302.58 18.104 300.996 18.632 299.012 18.632ZM323.116 47.48C320.204 47.48 317.58 46.904 315.244 45.752C312.94 44.568 311.132 42.952 309.82 40.904C308.508 38.824 307.852 36.472 307.852 33.848C307.852 31.224 308.508 28.888 309.82 26.84C311.132 24.76 312.94 23.144 315.244 21.992C317.58 20.84 320.204 20.264 323.116 20.264C326.06 20.264 328.684 20.84 330.988 21.992C333.324 23.144 335.132 24.76 336.412 26.84C337.724 28.888 338.38 31.224 338.38 33.848C338.38 36.472 337.724 38.824 336.412 40.904C335.132 42.952 333.324 44.568 330.988 45.752C328.684 46.904 326.06 47.48 323.116 47.48ZM323.116 39.032C324.364 39.032 325.388 38.584 326.188 37.688C326.988 36.76 327.388 35.48 327.388 33.848C327.388 32.216 326.988 30.952 326.188 30.056C325.388 29.16 324.364 28.712 323.116 28.712C321.868 28.712 320.844 29.16 320.044 30.056C319.244 30.952 318.844 32.216 318.844 33.848C318.844 35.48 319.244 36.76 320.044 37.688C320.844 38.584 321.868 39.032 323.116 39.032Z" fill="white"/>
<path d="M12.924 76V65.596L8.298 73.678H7.506L2.862 65.596V76H1.602V63.22H2.898L7.884 71.968L12.906 63.22H14.184V76H12.924ZM16.2913 73.3C16.2913 72.712 16.4593 72.208 16.7953 71.788C17.1313 71.356 17.5933 71.026 18.1813 70.798C18.7813 70.558 19.4713 70.438 20.2513 70.438C20.7073 70.438 21.1813 70.474 21.6733 70.546C22.1653 70.618 22.6033 70.726 22.9873 70.87V70.078C22.9873 69.286 22.7533 68.656 22.2853 68.188C21.8173 67.72 21.1693 67.486 20.3413 67.486C19.8373 67.486 19.3393 67.582 18.8473 67.774C18.3673 67.954 17.8633 68.224 17.3353 68.584L16.8673 67.72C17.4793 67.3 18.0793 66.988 18.6673 66.784C19.2553 66.568 19.8553 66.46 20.4673 66.46C21.6193 66.46 22.5313 66.79 23.2033 67.45C23.8753 68.11 24.2113 69.022 24.2113 70.186V74.524C24.2113 74.692 24.2473 74.818 24.3193 74.902C24.3913 74.974 24.5053 75.016 24.6613 75.028V76C24.5293 76.012 24.4153 76.024 24.3193 76.036C24.2233 76.048 24.1513 76.048 24.1033 76.036C23.8033 76.024 23.5753 75.928 23.4193 75.748C23.2633 75.568 23.1793 75.376 23.1673 75.172L23.1493 74.488C22.7293 75.028 22.1833 75.448 21.5113 75.748C20.8393 76.036 20.1553 76.18 19.4593 76.18C18.8593 76.18 18.3133 76.054 17.8213 75.802C17.3413 75.538 16.9633 75.19 16.6873 74.758C16.4233 74.314 16.2913 73.828 16.2913 73.3ZM22.5733 74.02C22.7053 73.852 22.8073 73.69 22.8793 73.534C22.9513 73.378 22.9873 73.24 22.9873 73.12V71.752C22.5793 71.596 22.1533 71.476 21.7093 71.392C21.2773 71.308 20.8393 71.266 20.3953 71.266C19.5193 71.266 18.8113 71.44 18.2713 71.788C17.7313 72.136 17.4613 72.61 17.4613 73.21C17.4613 73.558 17.5513 73.888 17.7313 74.2C17.9113 74.5 18.1753 74.752 18.5233 74.956C18.8713 75.148 19.2793 75.244 19.7473 75.244C20.3353 75.244 20.8813 75.13 21.3853 74.902C21.9013 74.674 22.2973 74.38 22.5733 74.02ZM33.5519 76L30.0779 71.194L28.0799 73.066V76H26.8559V62.86H28.0799V71.752L33.3899 66.64H34.7399L30.9059 70.474L34.8839 76H33.5519ZM36.4008 76V66.622H37.6248V76H36.4008ZM36.4008 64.66V62.86H37.6248V64.66H36.4008ZM48.2047 76H46.9807V70.762C46.9807 69.658 46.8187 68.854 46.4947 68.35C46.1707 67.834 45.6607 67.576 44.9647 67.576C44.4847 67.576 44.0107 67.696 43.5427 67.936C43.0747 68.164 42.6607 68.482 42.3007 68.89C41.9527 69.286 41.7007 69.742 41.5447 70.258V76H40.3207V66.622H41.4367V68.746C41.6887 68.29 42.0187 67.894 42.4267 67.558C42.8347 67.21 43.2967 66.94 43.8127 66.748C44.3287 66.556 44.8627 66.46 45.4147 66.46C45.9307 66.46 46.3687 66.556 46.7287 66.748C47.0887 66.94 47.3767 67.216 47.5927 67.576C47.8087 67.924 47.9647 68.35 48.0607 68.854C48.1567 69.346 48.2047 69.898 48.2047 70.51V76ZM54.5768 76.126C53.9408 76.126 53.3528 75.994 52.8128 75.73C52.2728 75.466 51.8048 75.112 51.4088 74.668C51.0248 74.212 50.7248 73.696 50.5088 73.12C50.2928 72.544 50.1848 71.95 50.1848 71.338C50.1848 70.678 50.2868 70.06 50.4908 69.484C50.7068 68.896 51.0068 68.374 51.3908 67.918C51.7868 67.462 52.2488 67.108 52.7768 66.856C53.3048 66.592 53.8928 66.46 54.5408 66.46C55.3448 66.46 56.0408 66.664 56.6288 67.072C57.2288 67.48 57.7328 67.984 58.1408 68.584V66.622H59.2388V76.036C59.2388 76.9 59.0288 77.626 58.6088 78.214C58.2008 78.814 57.6428 79.264 56.9348 79.564C56.2388 79.864 55.4768 80.014 54.6488 80.014C53.5808 80.014 52.7168 79.822 52.0568 79.438C51.3968 79.054 50.8568 78.538 50.4368 77.89L51.1928 77.296C51.5648 77.884 52.0568 78.322 52.6688 78.61C53.2928 78.898 53.9528 79.042 54.6488 79.042C55.2608 79.042 55.8188 78.928 56.3228 78.7C56.8388 78.484 57.2468 78.154 57.5468 77.71C57.8588 77.266 58.0148 76.708 58.0148 76.036V74.182C57.6548 74.77 57.1628 75.244 56.5388 75.604C55.9148 75.952 55.2608 76.126 54.5768 76.126ZM54.9188 75.1C55.2908 75.1 55.6448 75.034 55.9808 74.902C56.3288 74.77 56.6468 74.596 56.9348 74.38C57.2228 74.152 57.4628 73.9 57.6548 73.624C57.8468 73.348 57.9668 73.066 58.0148 72.778V69.88C57.8348 69.424 57.5768 69.022 57.2408 68.674C56.9048 68.314 56.5208 68.038 56.0888 67.846C55.6688 67.642 55.2308 67.54 54.7748 67.54C54.2468 67.54 53.7728 67.654 53.3528 67.882C52.9448 68.098 52.5968 68.392 52.3088 68.764C52.0328 69.124 51.8168 69.532 51.6608 69.988C51.5048 70.444 51.4268 70.9 51.4268 71.356C51.4268 71.86 51.5168 72.34 51.6968 72.796C51.8768 73.24 52.1228 73.642 52.4348 74.002C52.7588 74.35 53.1308 74.62 53.5508 74.812C53.9828 75.004 54.4388 75.1 54.9188 75.1ZM66.5775 78.88C66.7455 78.892 66.9075 78.898 67.0635 78.898C67.2195 78.91 67.3335 78.904 67.4055 78.88C67.5495 78.856 67.6875 78.772 67.8195 78.628C67.9515 78.484 68.1075 78.208 68.2875 77.8C68.4675 77.392 68.7195 76.792 69.0435 76L64.9575 66.622H66.2535L69.6915 74.74L72.8595 66.622H74.0835L69.2235 78.718C69.1395 78.946 69.0135 79.156 68.8455 79.348C68.6775 79.552 68.4675 79.708 68.2155 79.816C67.9755 79.936 67.6755 80.002 67.3155 80.014C67.2075 80.026 67.0935 80.026 66.9735 80.014C66.8655 80.014 66.7335 80.002 66.5775 79.978V78.88ZM79.4554 76.18C78.7834 76.18 78.1594 76.054 77.5834 75.802C77.0194 75.538 76.5274 75.184 76.1074 74.74C75.6994 74.284 75.3814 73.768 75.1534 73.192C74.9254 72.604 74.8114 71.986 74.8114 71.338C74.8114 70.666 74.9254 70.042 75.1534 69.466C75.3814 68.878 75.7054 68.362 76.1254 67.918C76.5454 67.462 77.0374 67.108 77.6014 66.856C78.1774 66.592 78.8014 66.46 79.4734 66.46C80.1454 66.46 80.7634 66.592 81.3274 66.856C81.8914 67.108 82.3834 67.462 82.8034 67.918C83.2234 68.362 83.5474 68.878 83.7754 69.466C84.0034 70.042 84.1174 70.666 84.1174 71.338C84.1174 71.986 84.0034 72.604 83.7754 73.192C83.5474 73.768 83.2234 74.284 82.8034 74.74C82.3954 75.184 81.9034 75.538 81.3274 75.802C80.7634 76.054 80.1394 76.18 79.4554 76.18ZM76.0534 71.356C76.0534 72.052 76.2034 72.688 76.5034 73.264C76.8154 73.828 77.2294 74.278 77.7454 74.614C78.2614 74.938 78.8314 75.1 79.4554 75.1C80.0794 75.1 80.6494 74.932 81.1654 74.596C81.6814 74.26 82.0954 73.804 82.4074 73.228C82.7194 72.64 82.8754 72.004 82.8754 71.32C82.8754 70.624 82.7194 69.988 82.4074 69.412C82.0954 68.836 81.6814 68.38 81.1654 68.044C80.6494 67.708 80.0794 67.54 79.4554 67.54C78.8314 67.54 78.2614 67.714 77.7454 68.062C77.2414 68.41 76.8334 68.872 76.5214 69.448C76.2094 70.012 76.0534 70.648 76.0534 71.356ZM86.0745 72.13V66.622H87.2985V71.914C87.2985 72.982 87.4785 73.78 87.8385 74.308C88.2105 74.836 88.7565 75.1 89.4765 75.1C89.9565 75.1 90.4185 74.998 90.8625 74.794C91.3185 74.578 91.7205 74.278 92.0685 73.894C92.4165 73.498 92.6805 73.042 92.8605 72.526V66.622H94.0845V74.524C94.0845 74.692 94.1205 74.818 94.1925 74.902C94.2645 74.974 94.3725 75.016 94.5165 75.028V76C94.3725 76.012 94.2585 76.018 94.1745 76.018C94.0905 76.03 94.0125 76.036 93.9405 76.036C93.7005 76.012 93.4905 75.916 93.3105 75.748C93.1425 75.58 93.0525 75.376 93.0405 75.136L93.0045 73.876C92.5965 74.596 92.0385 75.16 91.3305 75.568C90.6345 75.976 89.8785 76.18 89.0625 76.18C88.0785 76.18 87.3345 75.838 86.8305 75.154C86.3265 74.47 86.0745 73.462 86.0745 72.13ZM100.684 73.3C100.684 72.712 100.852 72.208 101.188 71.788C101.524 71.356 101.986 71.026 102.574 70.798C103.174 70.558 103.864 70.438 104.644 70.438C105.1 70.438 105.574 70.474 106.066 70.546C106.558 70.618 106.996 70.726 107.38 70.87V70.078C107.38 69.286 107.146 68.656 106.678 68.188C106.21 67.72 105.562 67.486 104.734 67.486C104.23 67.486 103.732 67.582 103.24 67.774C102.76 67.954 102.256 68.224 101.728 68.584L101.26 67.72C101.872 67.3 102.472 66.988 103.06 66.784C103.648 66.568 104.248 66.46 104.86 66.46C106.012 66.46 106.924 66.79 107.596 67.45C108.268 68.11 108.604 69.022 108.604 70.186V74.524C108.604 74.692 108.64 74.818 108.712 74.902C108.784 74.974 108.898 75.016 109.054 75.028V76C108.922 76.012 108.808 76.024 108.712 76.036C108.616 76.048 108.544 76.048 108.496 76.036C108.196 76.024 107.968 75.928 107.812 75.748C107.656 75.568 107.572 75.376 107.56 75.172L107.542 74.488C107.122 75.028 106.576 75.448 105.904 75.748C105.232 76.036 104.548 76.18 103.852 76.18C103.252 76.18 102.706 76.054 102.214 75.802C101.734 75.538 101.356 75.19 101.08 74.758C100.816 74.314 100.684 73.828 100.684 73.3ZM106.966 74.02C107.098 73.852 107.2 73.69 107.272 73.534C107.344 73.378 107.38 73.24 107.38 73.12V71.752C106.972 71.596 106.546 71.476 106.102 71.392C105.67 71.308 105.232 71.266 104.788 71.266C103.912 71.266 103.204 71.44 102.664 71.788C102.124 72.136 101.854 72.61 101.854 73.21C101.854 73.558 101.944 73.888 102.124 74.2C102.304 74.5 102.568 74.752 102.916 74.956C103.264 75.148 103.672 75.244 104.14 75.244C104.728 75.244 105.274 75.13 105.778 74.902C106.294 74.674 106.69 74.38 106.966 74.02ZM122.775 66.622H123.981L119.949 76H118.887L116.925 71.338L114.981 76H113.919L109.887 66.622H111.075L114.495 74.74L116.223 70.51L114.639 66.64H115.737L116.925 69.682L118.131 66.64H119.211L117.645 70.51L119.373 74.74L122.775 66.622ZM124.625 73.3C124.625 72.712 124.793 72.208 125.129 71.788C125.465 71.356 125.927 71.026 126.515 70.798C127.115 70.558 127.805 70.438 128.585 70.438C129.041 70.438 129.515 70.474 130.007 70.546C130.499 70.618 130.937 70.726 131.321 70.87V70.078C131.321 69.286 131.087 68.656 130.619 68.188C130.151 67.72 129.503 67.486 128.675 67.486C128.171 67.486 127.673 67.582 127.181 67.774C126.701 67.954 126.197 68.224 125.669 68.584L125.201 67.72C125.813 67.3 126.413 66.988 127.001 66.784C127.589 66.568 128.189 66.46 128.801 66.46C129.953 66.46 130.865 66.79 131.537 67.45C132.209 68.11 132.545 69.022 132.545 70.186V74.524C132.545 74.692 132.581 74.818 132.653 74.902C132.725 74.974 132.839 75.016 132.995 75.028V76C132.863 76.012 132.749 76.024 132.653 76.036C132.557 76.048 132.485 76.048 132.437 76.036C132.137 76.024 131.909 75.928 131.753 75.748C131.597 75.568 131.513 75.376 131.501 75.172L131.483 74.488C131.063 75.028 130.517 75.448 129.845 75.748C129.173 76.036 128.489 76.18 127.793 76.18C127.193 76.18 126.647 76.054 126.155 75.802C125.675 75.538 125.297 75.19 125.021 74.758C124.757 74.314 124.625 73.828 124.625 73.3ZM130.907 74.02C131.039 73.852 131.141 73.69 131.213 73.534C131.285 73.378 131.321 73.24 131.321 73.12V71.752C130.913 71.596 130.487 71.476 130.043 71.392C129.611 71.308 129.173 71.266 128.729 71.266C127.853 71.266 127.145 71.44 126.605 71.788C126.065 72.136 125.795 72.61 125.795 73.21C125.795 73.558 125.885 73.888 126.065 74.2C126.245 74.5 126.509 74.752 126.857 74.956C127.205 75.148 127.613 75.244 128.081 75.244C128.669 75.244 129.215 75.13 129.719 74.902C130.235 74.674 130.631 74.38 130.907 74.02ZM139.87 67.702C139.054 67.726 138.334 67.954 137.71 68.386C137.098 68.818 136.666 69.412 136.414 70.168V76H135.19V66.622H136.342V68.872C136.666 68.212 137.092 67.678 137.62 67.27C138.16 66.862 138.73 66.634 139.33 66.586C139.45 66.574 139.552 66.568 139.636 66.568C139.732 66.568 139.81 66.574 139.87 66.586V67.702ZM145.252 76.18C144.58 76.18 143.956 76.054 143.38 75.802C142.804 75.538 142.306 75.184 141.886 74.74C141.466 74.284 141.136 73.762 140.896 73.174C140.668 72.586 140.554 71.956 140.554 71.284C140.554 70.408 140.752 69.604 141.148 68.872C141.556 68.14 142.114 67.558 142.822 67.126C143.53 66.682 144.334 66.46 145.234 66.46C146.158 66.46 146.962 66.682 147.646 67.126C148.342 67.57 148.888 68.158 149.284 68.89C149.68 69.61 149.878 70.402 149.878 71.266C149.878 71.362 149.878 71.458 149.878 71.554C149.878 71.638 149.872 71.704 149.86 71.752H141.832C141.892 72.424 142.078 73.024 142.39 73.552C142.714 74.068 143.128 74.482 143.632 74.794C144.148 75.094 144.706 75.244 145.306 75.244C145.918 75.244 146.494 75.088 147.034 74.776C147.586 74.464 147.97 74.056 148.186 73.552L149.248 73.84C149.056 74.284 148.762 74.686 148.366 75.046C147.97 75.406 147.502 75.688 146.962 75.892C146.434 76.084 145.864 76.18 145.252 76.18ZM141.796 70.87H148.726C148.678 70.186 148.492 69.586 148.168 69.07C147.856 68.554 147.442 68.152 146.926 67.864C146.422 67.564 145.864 67.414 145.252 67.414C144.64 67.414 144.082 67.564 143.578 67.864C143.074 68.152 142.66 68.56 142.336 69.088C142.024 69.604 141.844 70.198 141.796 70.87ZM160.35 76.18C159.678 76.18 159.054 76.054 158.478 75.802C157.914 75.538 157.422 75.184 157.002 74.74C156.594 74.284 156.276 73.768 156.048 73.192C155.82 72.604 155.706 71.986 155.706 71.338C155.706 70.666 155.82 70.042 156.048 69.466C156.276 68.878 156.6 68.362 157.02 67.918C157.44 67.462 157.932 67.108 158.496 66.856C159.072 66.592 159.696 66.46 160.368 66.46C161.04 66.46 161.658 66.592 162.222 66.856C162.786 67.108 163.278 67.462 163.698 67.918C164.118 68.362 164.442 68.878 164.67 69.466C164.898 70.042 165.012 70.666 165.012 71.338C165.012 71.986 164.898 72.604 164.67 73.192C164.442 73.768 164.118 74.284 163.698 74.74C163.29 75.184 162.798 75.538 162.222 75.802C161.658 76.054 161.034 76.18 160.35 76.18ZM156.948 71.356C156.948 72.052 157.098 72.688 157.398 73.264C157.71 73.828 158.124 74.278 158.64 74.614C159.156 74.938 159.726 75.1 160.35 75.1C160.974 75.1 161.544 74.932 162.06 74.596C162.576 74.26 162.99 73.804 163.302 73.228C163.614 72.64 163.77 72.004 163.77 71.32C163.77 70.624 163.614 69.988 163.302 69.412C162.99 68.836 162.576 68.38 162.06 68.044C161.544 67.708 160.974 67.54 160.35 67.54C159.726 67.54 159.156 67.714 158.64 68.062C158.136 68.41 157.728 68.872 157.416 69.448C157.104 70.012 156.948 70.648 156.948 71.356ZM167.351 76V67.594H166.055V66.622H167.351V66.37C167.351 65.602 167.459 64.942 167.675 64.39C167.903 63.838 168.221 63.418 168.629 63.13C169.049 62.83 169.541 62.68 170.105 62.68C170.477 62.68 170.837 62.734 171.185 62.842C171.533 62.95 171.833 63.094 172.085 63.274L171.707 64.156C171.551 64.024 171.347 63.922 171.095 63.85C170.843 63.778 170.591 63.742 170.339 63.742C169.775 63.742 169.337 63.964 169.025 64.408C168.725 64.852 168.575 65.494 168.575 66.334V66.622H171.167V67.594H168.575V76H167.351ZM181.076 76.18C180.404 76.18 179.78 76.054 179.204 75.802C178.628 75.538 178.13 75.184 177.71 74.74C177.29 74.284 176.96 73.762 176.72 73.174C176.492 72.586 176.378 71.956 176.378 71.284C176.378 70.408 176.576 69.604 176.972 68.872C177.38 68.14 177.938 67.558 178.646 67.126C179.354 66.682 180.158 66.46 181.058 66.46C181.982 66.46 182.786 66.682 183.47 67.126C184.166 67.57 184.712 68.158 185.108 68.89C185.504 69.61 185.702 70.402 185.702 71.266C185.702 71.362 185.702 71.458 185.702 71.554C185.702 71.638 185.696 71.704 185.684 71.752H177.656C177.716 72.424 177.902 73.024 178.214 73.552C178.538 74.068 178.952 74.482 179.456 74.794C179.972 75.094 180.53 75.244 181.13 75.244C181.742 75.244 182.318 75.088 182.858 74.776C183.41 74.464 183.794 74.056 184.01 73.552L185.072 73.84C184.88 74.284 184.586 74.686 184.19 75.046C183.794 75.406 183.326 75.688 182.786 75.892C182.258 76.084 181.688 76.18 181.076 76.18ZM177.62 70.87H184.55C184.502 70.186 184.316 69.586 183.992 69.07C183.68 68.554 183.266 68.152 182.75 67.864C182.246 67.564 181.688 67.414 181.076 67.414C180.464 67.414 179.906 67.564 179.402 67.864C178.898 68.152 178.484 68.56 178.16 69.088C177.848 69.604 177.668 70.198 177.62 70.87ZM190.134 76L186.336 66.622H187.614L190.818 74.776L194.04 66.622H195.246L191.448 76H190.134ZM200.675 76.18C200.003 76.18 199.379 76.054 198.803 75.802C198.227 75.538 197.729 75.184 197.309 74.74C196.889 74.284 196.559 73.762 196.319 73.174C196.091 72.586 195.977 71.956 195.977 71.284C195.977 70.408 196.175 69.604 196.571 68.872C196.979 68.14 197.537 67.558 198.245 67.126C198.953 66.682 199.757 66.46 200.657 66.46C201.581 66.46 202.385 66.682 203.069 67.126C203.765 67.57 204.311 68.158 204.707 68.89C205.103 69.61 205.301 70.402 205.301 71.266C205.301 71.362 205.301 71.458 205.301 71.554C205.301 71.638 205.295 71.704 205.283 71.752H197.255C197.315 72.424 197.501 73.024 197.813 73.552C198.137 74.068 198.551 74.482 199.055 74.794C199.571 75.094 200.129 75.244 200.729 75.244C201.341 75.244 201.917 75.088 202.457 74.776C203.009 74.464 203.393 74.056 203.609 73.552L204.671 73.84C204.479 74.284 204.185 74.686 203.789 75.046C203.393 75.406 202.925 75.688 202.385 75.892C201.857 76.084 201.287 76.18 200.675 76.18ZM197.219 70.87H204.149C204.101 70.186 203.915 69.586 203.591 69.07C203.279 68.554 202.865 68.152 202.349 67.864C201.845 67.564 201.287 67.414 200.675 67.414C200.063 67.414 199.505 67.564 199.001 67.864C198.497 68.152 198.083 68.56 197.759 69.088C197.447 69.604 197.267 70.198 197.219 70.87ZM211.87 67.702C211.054 67.726 210.334 67.954 209.71 68.386C209.098 68.818 208.666 69.412 208.414 70.168V76H207.19V66.622H208.342V68.872C208.666 68.212 209.092 67.678 209.62 67.27C210.16 66.862 210.73 66.634 211.33 66.586C211.45 66.574 211.552 66.568 211.636 66.568C211.732 66.568 211.81 66.574 211.87 66.586V67.702ZM214.04 78.88C214.208 78.892 214.37 78.898 214.526 78.898C214.682 78.91 214.796 78.904 214.868 78.88C215.012 78.856 215.15 78.772 215.282 78.628C215.414 78.484 215.57 78.208 215.75 77.8C215.93 77.392 216.182 76.792 216.506 76L212.42 66.622H213.716L217.154 74.74L220.322 66.622H221.546L216.686 78.718C216.602 78.946 216.476 79.156 216.308 79.348C216.14 79.552 215.93 79.708 215.678 79.816C215.438 79.936 215.138 80.002 214.778 80.014C214.67 80.026 214.556 80.026 214.436 80.014C214.328 80.014 214.196 80.002 214.04 79.978V78.88ZM227.756 75.55C227.66 75.586 227.51 75.652 227.306 75.748C227.102 75.844 226.856 75.928 226.568 76C226.28 76.072 225.968 76.108 225.632 76.108C225.284 76.108 224.954 76.042 224.642 75.91C224.342 75.778 224.102 75.58 223.922 75.316C223.742 75.04 223.652 74.704 223.652 74.308V67.594H222.356V66.622H223.652V63.454H224.876V66.622H227.036V67.594H224.876V73.966C224.9 74.302 225.02 74.554 225.236 74.722C225.464 74.89 225.722 74.974 226.01 74.974C226.346 74.974 226.652 74.92 226.928 74.812C227.204 74.692 227.372 74.608 227.432 74.56L227.756 75.55ZM237.17 76H235.946V70.762C235.946 69.706 235.76 68.914 235.388 68.386C235.016 67.846 234.482 67.576 233.786 67.576C233.33 67.576 232.874 67.696 232.418 67.936C231.974 68.164 231.578 68.482 231.23 68.89C230.894 69.286 230.654 69.742 230.51 70.258V76H229.286V62.86H230.51V68.746C230.882 68.05 231.398 67.498 232.058 67.09C232.73 66.67 233.444 66.46 234.2 66.46C234.74 66.46 235.196 66.556 235.568 66.748C235.952 66.94 236.258 67.222 236.486 67.594C236.726 67.954 236.9 68.38 237.008 68.872C237.116 69.352 237.17 69.898 237.17 70.51V76ZM239.78 76V66.622H241.004V76H239.78ZM239.78 64.66V62.86H241.004V64.66H239.78ZM251.584 76H250.36V70.762C250.36 69.658 250.198 68.854 249.874 68.35C249.55 67.834 249.04 67.576 248.344 67.576C247.864 67.576 247.39 67.696 246.922 67.936C246.454 68.164 246.04 68.482 245.68 68.89C245.332 69.286 245.08 69.742 244.924 70.258V76H243.7V66.622H244.816V68.746C245.068 68.29 245.398 67.894 245.806 67.558C246.214 67.21 246.676 66.94 247.192 66.748C247.708 66.556 248.242 66.46 248.794 66.46C249.31 66.46 249.748 66.556 250.108 66.748C250.468 66.94 250.756 67.216 250.972 67.576C251.188 67.924 251.344 68.35 251.44 68.854C251.536 69.346 251.584 69.898 251.584 70.51V76ZM257.956 76.126C257.32 76.126 256.732 75.994 256.192 75.73C255.652 75.466 255.184 75.112 254.788 74.668C254.404 74.212 254.104 73.696 253.888 73.12C253.672 72.544 253.564 71.95 253.564 71.338C253.564 70.678 253.666 70.06 253.87 69.484C254.086 68.896 254.386 68.374 254.77 67.918C255.166 67.462 255.628 67.108 256.156 66.856C256.684 66.592 257.272 66.46 257.92 66.46C258.724 66.46 259.42 66.664 260.008 67.072C260.608 67.48 261.112 67.984 261.52 68.584V66.622H262.618V76.036C262.618 76.9 262.408 77.626 261.988 78.214C261.58 78.814 261.022 79.264 260.314 79.564C259.618 79.864 258.856 80.014 258.028 80.014C256.96 80.014 256.096 79.822 255.436 79.438C254.776 79.054 254.236 78.538 253.816 77.89L254.572 77.296C254.944 77.884 255.436 78.322 256.048 78.61C256.672 78.898 257.332 79.042 258.028 79.042C258.64 79.042 259.198 78.928 259.702 78.7C260.218 78.484 260.626 78.154 260.926 77.71C261.238 77.266 261.394 76.708 261.394 76.036V74.182C261.034 74.77 260.542 75.244 259.918 75.604C259.294 75.952 258.64 76.126 257.956 76.126ZM258.298 75.1C258.67 75.1 259.024 75.034 259.36 74.902C259.708 74.77 260.026 74.596 260.314 74.38C260.602 74.152 260.842 73.9 261.034 73.624C261.226 73.348 261.346 73.066 261.394 72.778V69.88C261.214 69.424 260.956 69.022 260.62 68.674C260.284 68.314 259.9 68.038 259.468 67.846C259.048 67.642 258.61 67.54 258.154 67.54C257.626 67.54 257.152 67.654 256.732 67.882C256.324 68.098 255.976 68.392 255.688 68.764C255.412 69.124 255.196 69.532 255.04 69.988C254.884 70.444 254.806 70.9 254.806 71.356C254.806 71.86 254.896 72.34 255.076 72.796C255.256 73.24 255.502 73.642 255.814 74.002C256.138 74.35 256.51 74.62 256.93 74.812C257.362 75.004 257.818 75.1 258.298 75.1ZM269.153 73.3C269.153 72.712 269.321 72.208 269.657 71.788C269.993 71.356 270.455 71.026 271.043 70.798C271.643 70.558 272.333 70.438 273.113 70.438C273.569 70.438 274.043 70.474 274.535 70.546C275.027 70.618 275.465 70.726 275.849 70.87V70.078C275.849 69.286 275.615 68.656 275.147 68.188C274.679 67.72 274.031 67.486 273.203 67.486C272.699 67.486 272.201 67.582 271.709 67.774C271.229 67.954 270.725 68.224 270.197 68.584L269.729 67.72C270.341 67.3 270.941 66.988 271.529 66.784C272.117 66.568 272.717 66.46 273.329 66.46C274.481 66.46 275.393 66.79 276.065 67.45C276.737 68.11 277.073 69.022 277.073 70.186V74.524C277.073 74.692 277.109 74.818 277.181 74.902C277.253 74.974 277.367 75.016 277.523 75.028V76C277.391 76.012 277.277 76.024 277.181 76.036C277.085 76.048 277.013 76.048 276.965 76.036C276.665 76.024 276.437 75.928 276.281 75.748C276.125 75.568 276.041 75.376 276.029 75.172L276.011 74.488C275.591 75.028 275.045 75.448 274.373 75.748C273.701 76.036 273.017 76.18 272.321 76.18C271.721 76.18 271.175 76.054 270.683 75.802C270.203 75.538 269.825 75.19 269.549 74.758C269.285 74.314 269.153 73.828 269.153 73.3ZM275.435 74.02C275.567 73.852 275.669 73.69 275.741 73.534C275.813 73.378 275.849 73.24 275.849 73.12V71.752C275.441 71.596 275.015 71.476 274.571 71.392C274.139 71.308 273.701 71.266 273.257 71.266C272.381 71.266 271.673 71.44 271.133 71.788C270.593 72.136 270.323 72.61 270.323 73.21C270.323 73.558 270.413 73.888 270.593 74.2C270.773 74.5 271.037 74.752 271.385 74.956C271.733 75.148 272.141 75.244 272.609 75.244C273.197 75.244 273.743 75.13 274.247 74.902C274.763 74.674 275.159 74.38 275.435 74.02ZM284.307 76.18C283.575 76.18 282.897 75.994 282.273 75.622C281.649 75.238 281.163 74.758 280.815 74.182V76H279.717V62.86H280.941V68.584C281.361 67.948 281.865 67.438 282.453 67.054C283.041 66.658 283.725 66.46 284.505 66.46C285.165 66.46 285.753 66.598 286.269 66.874C286.797 67.15 287.247 67.522 287.619 67.99C287.991 68.446 288.273 68.968 288.465 69.556C288.657 70.132 288.753 70.726 288.753 71.338C288.753 71.998 288.639 72.616 288.411 73.192C288.195 73.768 287.883 74.284 287.475 74.74C287.067 75.184 286.593 75.538 286.053 75.802C285.525 76.054 284.943 76.18 284.307 76.18ZM284.019 75.1C284.523 75.1 284.991 74.998 285.423 74.794C285.855 74.59 286.227 74.308 286.539 73.948C286.851 73.588 287.091 73.186 287.259 72.742C287.427 72.286 287.511 71.818 287.511 71.338C287.511 70.678 287.367 70.06 287.079 69.484C286.803 68.896 286.413 68.428 285.909 68.08C285.417 67.72 284.835 67.54 284.163 67.54C283.683 67.54 283.233 67.648 282.813 67.864C282.405 68.08 282.039 68.368 281.715 68.728C281.403 69.076 281.145 69.46 280.941 69.88V72.796C280.989 73.12 281.115 73.426 281.319 73.714C281.523 73.99 281.775 74.23 282.075 74.434C282.387 74.638 282.711 74.8 283.047 74.92C283.383 75.04 283.707 75.1 284.019 75.1ZM294.823 76.18C294.151 76.18 293.527 76.054 292.951 75.802C292.387 75.538 291.895 75.184 291.475 74.74C291.067 74.284 290.749 73.768 290.521 73.192C290.293 72.604 290.179 71.986 290.179 71.338C290.179 70.666 290.293 70.042 290.521 69.466C290.749 68.878 291.073 68.362 291.493 67.918C291.913 67.462 292.405 67.108 292.969 66.856C293.545 66.592 294.169 66.46 294.841 66.46C295.513 66.46 296.131 66.592 296.695 66.856C297.259 67.108 297.751 67.462 298.171 67.918C298.591 68.362 298.915 68.878 299.143 69.466C299.371 70.042 299.485 70.666 299.485 71.338C299.485 71.986 299.371 72.604 299.143 73.192C298.915 73.768 298.591 74.284 298.171 74.74C297.763 75.184 297.271 75.538 296.695 75.802C296.131 76.054 295.507 76.18 294.823 76.18ZM291.421 71.356C291.421 72.052 291.571 72.688 291.871 73.264C292.183 73.828 292.597 74.278 293.113 74.614C293.629 74.938 294.199 75.1 294.823 75.1C295.447 75.1 296.017 74.932 296.533 74.596C297.049 74.26 297.463 73.804 297.775 73.228C298.087 72.64 298.243 72.004 298.243 71.32C298.243 70.624 298.087 69.988 297.775 69.412C297.463 68.836 297.049 68.38 296.533 68.044C296.017 67.708 295.447 67.54 294.823 67.54C294.199 67.54 293.629 67.714 293.113 68.062C292.609 68.41 292.201 68.872 291.889 69.448C291.577 70.012 291.421 70.648 291.421 71.356ZM301.442 72.13V66.622H302.666V71.914C302.666 72.982 302.846 73.78 303.206 74.308C303.578 74.836 304.124 75.1 304.844 75.1C305.324 75.1 305.786 74.998 306.23 74.794C306.686 74.578 307.088 74.278 307.436 73.894C307.784 73.498 308.048 73.042 308.228 72.526V66.622H309.452V74.524C309.452 74.692 309.488 74.818 309.56 74.902C309.632 74.974 309.74 75.016 309.884 75.028V76C309.74 76.012 309.626 76.018 309.542 76.018C309.458 76.03 309.38 76.036 309.308 76.036C309.068 76.012 308.858 75.916 308.678 75.748C308.51 75.58 308.42 75.376 308.408 75.136L308.372 73.876C307.964 74.596 307.406 75.16 306.698 75.568C306.002 75.976 305.246 76.18 304.43 76.18C303.446 76.18 302.702 75.838 302.198 75.154C301.694 74.47 301.442 73.462 301.442 72.13ZM316.719 75.55C316.623 75.586 316.473 75.652 316.269 75.748C316.065 75.844 315.819 75.928 315.531 76C315.243 76.072 314.931 76.108 314.595 76.108C314.247 76.108 313.917 76.042 313.605 75.91C313.305 75.778 313.065 75.58 312.885 75.316C312.705 75.04 312.615 74.704 312.615 74.308V67.594H311.319V66.622H312.615V63.454H313.839V66.622H315.999V67.594H313.839V73.966C313.863 74.302 313.983 74.554 314.199 74.722C314.427 74.89 314.685 74.974 314.973 74.974C315.309 74.974 315.615 74.92 315.891 74.812C316.167 74.692 316.335 74.608 316.395 74.56L316.719 75.55ZM322.08 73.3C322.08 72.712 322.248 72.208 322.584 71.788C322.92 71.356 323.382 71.026 323.97 70.798C324.57 70.558 325.26 70.438 326.04 70.438C326.496 70.438 326.97 70.474 327.462 70.546C327.954 70.618 328.392 70.726 328.776 70.87V70.078C328.776 69.286 328.542 68.656 328.074 68.188C327.606 67.72 326.958 67.486 326.13 67.486C325.626 67.486 325.128 67.582 324.636 67.774C324.156 67.954 323.652 68.224 323.124 68.584L322.656 67.72C323.268 67.3 323.868 66.988 324.456 66.784C325.044 66.568 325.644 66.46 326.256 66.46C327.408 66.46 328.32 66.79 328.992 67.45C329.664 68.11 330 69.022 330 70.186V74.524C330 74.692 330.036 74.818 330.108 74.902C330.18 74.974 330.294 75.016 330.45 75.028V76C330.318 76.012 330.204 76.024 330.108 76.036C330.012 76.048 329.94 76.048 329.892 76.036C329.592 76.024 329.364 75.928 329.208 75.748C329.052 75.568 328.968 75.376 328.956 75.172L328.938 74.488C328.518 75.028 327.972 75.448 327.3 75.748C326.628 76.036 325.944 76.18 325.248 76.18C324.648 76.18 324.102 76.054 323.61 75.802C323.13 75.538 322.752 75.19 322.476 74.758C322.212 74.314 322.08 73.828 322.08 73.3ZM328.362 74.02C328.494 73.852 328.596 73.69 328.668 73.534C328.74 73.378 328.776 73.24 328.776 73.12V71.752C328.368 71.596 327.942 71.476 327.498 71.392C327.066 71.308 326.628 71.266 326.184 71.266C325.308 71.266 324.6 71.44 324.06 71.788C323.52 72.136 323.25 72.61 323.25 73.21C323.25 73.558 323.34 73.888 323.52 74.2C323.7 74.5 323.964 74.752 324.312 74.956C324.66 75.148 325.068 75.244 325.536 75.244C326.124 75.244 326.67 75.13 327.174 74.902C327.69 74.674 328.086 74.38 328.362 74.02ZM337.325 67.702C336.509 67.726 335.789 67.954 335.165 68.386C334.553 68.818 334.121 69.412 333.869 70.168V76H332.645V66.622H333.797V68.872C334.121 68.212 334.547 67.678 335.075 67.27C335.615 66.862 336.185 66.634 336.785 66.586C336.905 66.574 337.007 66.568 337.091 66.568C337.187 66.568 337.265 66.574 337.325 66.586V67.702ZM343.455 75.55C343.359 75.586 343.209 75.652 343.005 75.748C342.801 75.844 342.555 75.928 342.267 76C341.979 76.072 341.667 76.108 341.331 76.108C340.983 76.108 340.653 76.042 340.341 75.91C340.041 75.778 339.801 75.58 339.621 75.316C339.441 75.04 339.351 74.704 339.351 74.308V67.594H338.055V66.622H339.351V63.454H340.575V66.622H342.735V67.594H340.575V73.966C340.599 74.302 340.719 74.554 340.935 74.722C341.163 74.89 341.421 74.974 341.709 74.974C342.045 74.974 342.351 74.92 342.627 74.812C342.903 74.692 343.071 74.608 343.131 74.56L343.455 75.55Z" fill="white"/>
</svg>
