<svg width="252" height="31" viewBox="0 0 252 31" fill="none" xmlns="http://www.w3.org/2000/svg">
<path d="M21.004 23.592V30H0.0520001V4.8H20.536V11.208H8.404V14.16H19.06V20.28H8.404V23.592H21.004ZM36.4427 30L33.7427 25.788L30.7187 30H21.8987L29.3507 20.244L22.1147 10.308H31.2947L34.1027 14.484L37.0547 10.308H45.5867L38.3507 19.884L45.7667 30H36.4427ZM60.9058 9.948C63.3298 9.948 65.2738 10.68 66.7378 12.144C68.2258 13.608 68.9698 15.816 68.9698 18.768V30H60.8338V20.172C60.8338 17.916 60.0298 16.788 58.4218 16.788C57.5098 16.788 56.7658 17.112 56.1898 17.76C55.6378 18.384 55.3618 19.38 55.3618 20.748V30H47.2258V3.288H55.3618V11.892C56.8738 10.596 58.7218 9.948 60.9058 9.948ZM72.5031 10.308H80.6391V30H72.5031V10.308ZM76.5711 8.724C75.1071 8.724 73.9191 8.34 73.0071 7.572C72.1191 6.78 71.6751 5.784 71.6751 4.584C71.6751 3.384 72.1191 2.4 73.0071 1.632C73.9191 0.839998 75.1071 0.443999 76.5711 0.443999C78.0591 0.443999 79.2471 0.815999 80.1351 1.56C81.0231 2.304 81.4671 3.264 81.4671 4.44C81.4671 5.688 81.0231 6.72 80.1351 7.536C79.2471 8.328 78.0591 8.724 76.5711 8.724ZM97.3853 9.948C99.1133 9.948 100.697 10.368 102.137 11.208C103.601 12.024 104.753 13.212 105.593 14.772C106.457 16.308 106.889 18.096 106.889 20.136C106.889 22.176 106.457 23.976 105.593 25.536C104.753 27.096 103.601 28.296 102.137 29.136C100.697 29.952 99.1133 30.36 97.3853 30.36C94.9613 30.36 93.1613 29.7 91.9853 28.38V30H84.2453V3.288H92.3813V11.64C93.5333 10.512 95.2013 9.948 97.3853 9.948ZM95.4413 24.024C96.3773 24.024 97.1453 23.688 97.7453 23.016C98.3453 22.32 98.6453 21.36 98.6453 20.136C98.6453 18.912 98.3453 17.964 97.7453 17.292C97.1453 16.62 96.3773 16.284 95.4413 16.284C94.5053 16.284 93.7373 16.62 93.1373 17.292C92.5373 17.964 92.2373 18.912 92.2373 20.136C92.2373 21.36 92.5373 22.32 93.1373 23.016C93.7373 23.688 94.5053 24.024 95.4413 24.024ZM109.452 10.308H117.588V30H109.452V10.308ZM113.52 8.724C112.056 8.724 110.868 8.34 109.956 7.572C109.068 6.78 108.624 5.784 108.624 4.584C108.624 3.384 109.068 2.4 109.956 1.632C110.868 0.839998 112.056 0.443999 113.52 0.443999C115.008 0.443999 116.196 0.815999 117.084 1.56C117.972 2.304 118.416 3.264 118.416 4.44C118.416 5.688 117.972 6.72 117.084 7.536C116.196 8.328 115.008 8.724 113.52 8.724ZM135.703 29.316C134.479 30.012 132.811 30.36 130.699 30.36C127.939 30.36 125.815 29.7 124.327 28.38C122.839 27.036 122.095 25.032 122.095 22.368V17.328H119.395V11.388H122.095V5.88H130.231V11.388H134.263V17.328H130.231V22.296C130.231 22.896 130.387 23.364 130.699 23.7C131.011 24.036 131.419 24.204 131.923 24.204C132.619 24.204 133.231 24.024 133.759 23.664L135.703 29.316ZM147.63 30.36C145.446 30.36 143.478 29.928 141.726 29.064C139.998 28.176 138.642 26.964 137.658 25.428C136.674 23.868 136.182 22.104 136.182 20.136C136.182 18.168 136.674 16.416 137.658 14.88C138.642 13.32 139.998 12.108 141.726 11.244C143.478 10.38 145.446 9.948 147.63 9.948C149.838 9.948 151.806 10.38 153.534 11.244C155.286 12.108 156.642 13.32 157.602 14.88C158.586 16.416 159.078 18.168 159.078 20.136C159.078 22.104 158.586 23.868 157.602 25.428C156.642 26.964 155.286 28.176 153.534 29.064C151.806 29.928 149.838 30.36 147.63 30.36ZM147.63 24.024C148.566 24.024 149.334 23.688 149.934 23.016C150.534 22.32 150.834 21.36 150.834 20.136C150.834 18.912 150.534 17.964 149.934 17.292C149.334 16.62 148.566 16.284 147.63 16.284C146.694 16.284 145.926 16.62 145.326 17.292C144.726 17.964 144.426 18.912 144.426 20.136C144.426 21.36 144.726 22.32 145.326 23.016C145.926 23.688 146.694 24.024 147.63 24.024ZM175.304 9.948C177.728 9.948 179.672 10.68 181.136 12.144C182.624 13.608 183.368 15.816 183.368 18.768V30H175.232V20.172C175.232 17.916 174.428 16.788 172.82 16.788C171.908 16.788 171.164 17.112 170.588 17.76C170.036 18.384 169.76 19.38 169.76 20.748V30H161.624V10.308H169.364V12.252C170.132 11.484 171.02 10.908 172.028 10.524C173.036 10.14 174.128 9.948 175.304 9.948ZM194.606 30.36C192.926 30.36 191.27 30.18 189.638 29.82C188.006 29.46 186.686 28.992 185.678 28.416L187.91 23.052C188.822 23.604 189.902 24.036 191.15 24.348C192.398 24.66 193.61 24.816 194.786 24.816C195.722 24.816 196.37 24.744 196.73 24.6C197.114 24.432 197.306 24.192 197.306 23.88C197.306 23.568 197.066 23.352 196.586 23.232C196.13 23.112 195.374 22.992 194.318 22.872C192.71 22.68 191.342 22.44 190.214 22.152C189.086 21.84 188.09 21.252 187.226 20.388C186.386 19.524 185.966 18.288 185.966 16.68C185.966 15.408 186.35 14.268 187.118 13.26C187.886 12.252 189.026 11.448 190.538 10.848C192.074 10.248 193.91 9.948 196.046 9.948C197.534 9.948 198.986 10.092 200.402 10.38C201.842 10.644 203.066 11.04 204.074 11.568L201.842 16.932C200.114 15.972 198.218 15.492 196.154 15.492C194.378 15.492 193.49 15.804 193.49 16.428C193.49 16.74 193.73 16.968 194.21 17.112C194.69 17.232 195.446 17.352 196.478 17.472C198.086 17.664 199.442 17.916 200.546 18.228C201.674 18.54 202.658 19.128 203.498 19.992C204.362 20.856 204.794 22.092 204.794 23.7C204.794 24.924 204.41 26.04 203.642 27.048C202.874 28.056 201.722 28.86 200.186 29.46C198.65 30.06 196.79 30.36 194.606 30.36ZM210.929 30.36C209.561 30.36 208.421 29.928 207.509 29.064C206.621 28.176 206.177 27.048 206.177 25.68C206.177 24.312 206.621 23.208 207.509 22.368C208.421 21.504 209.561 21.072 210.929 21.072C212.297 21.072 213.425 21.504 214.313 22.368C215.225 23.208 215.681 24.312 215.681 25.68C215.681 27.048 215.225 28.176 214.313 29.064C213.425 29.928 212.297 30.36 210.929 30.36ZM218.191 10.308H226.327V30H218.191V10.308ZM222.259 8.724C220.795 8.724 219.607 8.34 218.695 7.572C217.807 6.78 217.363 5.784 217.363 4.584C217.363 3.384 217.807 2.4 218.695 1.632C219.607 0.839998 220.795 0.443999 222.259 0.443999C223.747 0.443999 224.935 0.815999 225.823 1.56C226.711 2.304 227.155 3.264 227.155 4.44C227.155 5.688 226.711 6.72 225.823 7.536C224.935 8.328 223.747 8.724 222.259 8.724ZM240.337 30.36C238.153 30.36 236.185 29.928 234.433 29.064C232.705 28.176 231.349 26.964 230.365 25.428C229.381 23.868 228.889 22.104 228.889 20.136C228.889 18.168 229.381 16.416 230.365 14.88C231.349 13.32 232.705 12.108 234.433 11.244C236.185 10.38 238.153 9.948 240.337 9.948C242.545 9.948 244.513 10.38 246.241 11.244C247.993 12.108 249.349 13.32 250.309 14.88C251.293 16.416 251.785 18.168 251.785 20.136C251.785 22.104 251.293 23.868 250.309 25.428C249.349 26.964 247.993 28.176 246.241 29.064C244.513 29.928 242.545 30.36 240.337 30.36ZM240.337 24.024C241.273 24.024 242.041 23.688 242.641 23.016C243.241 22.32 243.541 21.36 243.541 20.136C243.541 18.912 243.241 17.964 242.641 17.292C242.041 16.62 241.273 16.284 240.337 16.284C239.401 16.284 238.633 16.62 238.033 17.292C237.433 17.964 237.133 18.912 237.133 20.136C237.133 21.36 237.433 22.32 238.033 23.016C238.633 23.688 239.401 24.024 240.337 24.024Z" fill="white"/>
</svg>
